# xmcd CD database file
#
# Track frame offsets:
#	150
#	9975
#	17885
#	28212
#	38492
#	46587
#	54835
#	65647
#	79632
#	90112
#	99180
#	113082
#	123450
#	133002
#	144657
#	152647
#	167357
#	179620
#	190737
#	203447
#
# Disc length: 2831 seconds
#
# Revision: 0
# Processed by: cddbd v1.5.2PL0 Copyright (c) Steve Scherf et al.
# Submitted via: CDex 1.51
#
DISCID=ed0b0d14
DTITLE=Fronteira - Violão de Ouro
DYEAR=1900
DGENRE=Country
TTITLE0=Delicada
TTITLE1=El Bandoleiro
TTITLE2=Cavalo Zaino
TTITLE3=Tristeza do Jeca
TTITLE4=Espanhola
TTITLE5=Cabloclinha
TTITLE6=La Palomas
TTITLE7=Pássaro Campano
TTITLE8=Orgulhosa
TTITLE9=Dorme Angelita
TTITLE10=Lembrança
TTITLE11=Referências
TTITLE12=Canção para Ana
TTITLE13=Desventura
TTITLE14=A Volta da Cabloclinha
TTITLE15=Chico Mulato
TTITLE16=Terra de Lara
TTITLE17=Zingara
TTITLE18=Chalana
TTITLE19=Araponga
EXTD=
EXTT0=
EXTT1=
EXTT2=
EXTT3=
EXTT4=
EXTT5=
EXTT6=
EXTT7=
EXTT8=
EXTT9=
EXTT10=
EXTT11=
EXTT12=
EXTT13=
EXTT14=
EXTT15=
EXTT16=
EXTT17=
EXTT18=
EXTT19=
PLAYORDER=
